<?xml version="1.0" standalone="no"?>
<!DOCTYPE svg PUBLIC "-//W3C//DTD SVG 20010904//EN" "http://www.w3.org/TR/2001/REC-SVG-20010904/DTD/svg10.dtd">
<!-- Created using Krita: https://krita.org -->
<svg xmlns="http://www.w3.org/2000/svg" 
    xmlns:xlink="http://www.w3.org/1999/xlink"
    xmlns:krita="http://krita.org/namespaces/svg/krita"
    xmlns:sodipodi="http://sodipodi.sourceforge.net/DTD/sodipodi-0.dtd"
    width="940.5pt"
    height="307.8pt"
    viewBox="0 0 940.5 307.8">
<defs/>
<path id="shape0" transform="translate(30.553501376068, 43.992808455798)" fill="#030003" d="M7.3365 12.7072C2.4455 4.23573 3.93162e-07 -2.26992e-07 -8.88178e-16 -1.77636e-15C0.0924273 0.0168478 0.163827 0.0262009 0.2142 0.0280592C2.66847 0.118602 4.77612 0.110907 7.22712 0.266622C11.0741 0.511029 14.351 1.04163 18.2035 1.17095C31.7651 1.62618 43.3974 1.74097 56.9652 1.9362C65.0971 2.05321 72.0687 1.9985 80.2012 2.06306C91.3957 2.15193 100.99 2.35512 112.185 2.37458C117.518 2.38385 122.087 2.19 127.42 2.14513C131.487 2.11092 137.297 2.09579 144.85 2.09974L159.175 26.9107C151.591 26.9098 145.757 26.8843 141.674 26.8341C136.228 26.7672 131.562 26.6076 126.116 26.5044C114.869 26.2913 105.225 26.2651 93.9809 25.9302C85.6483 25.682 78.5218 25.0401 70.1879 24.8387C56.6952 24.5126 45.1247 24.3376 31.6284 24.4234C28.1067 24.4458 25.1082 24.9459 21.5922 25.1478C19.2365 25.283 17.2126 25.2955 14.8548 25.3863C14.8119 25.388 14.7513 25.3973 14.673 25.4144L14.673 25.4144C14.673 25.4144 12.2275 21.1787 7.3365 12.7072Z" sodipodi:nodetypes="ccccccccccccccccccccc"/><path id="shape1" transform="translate(106.43603869126, 55.7828081153096)" fill="#030003" d="M12.364 12.7072C17.255 21.1787 19.7005 25.4144 19.7005 25.4144C19.6953 25.4883 19.6899 25.5449 19.6843 25.5843C19.5395 26.5879 19.4577 27.4555 19.2624 28.4504C18.463 32.5247 17.4429 35.9554 16.8431 40.0639C15.6615 48.158 14.8959 55.1343 14.1774 63.2827C13.754 68.085 13.6541 72.2236 13.5824 77.0441C13.4315 87.1976 13.0261 95.9158 13.5415 106.057C14.1506 118.042 15.6646 128.242 16.7916 140.19C17.0437 142.862 17.2729 145.151 17.4816 147.827C17.9725 154.118 18.6425 163.108 19.4916 174.795L5.64909 150.819C4.92006 139.337 4.34114 130.505 3.91233 124.325C3.72948 121.689 3.52364 119.434 3.28894 116.802C2.23341 104.968 0.789318 94.8622 0.225987 82.9943C-0.254226 72.8774 0.15663 64.1837 0.310605 54.0566C0.384162 49.2186 0.530973 45.07 0.875977 40.2438C1.48027 31.7906 2.10734 24.5506 3.02215 16.1253C3.50374 11.6899 4.30155 7.93789 4.86428 3.51207C5.00956 2.36945 4.9902 1.37663 5.04366 0.226059C5.04612 0.173234 5.04072 0.0978807 5.02746 9.12336e-15L5.02746 9.12336e-15C5.02746 -2.26992e-07 7.47296 4.23573 12.364 12.7072Z" sodipodi:nodetypes="ccccccccccccccccccccccc"/><path id="shape2" transform="translate(43.153501376068, 214.993999978943)" fill="#030003" d="M7.3365 15.406C2.4455 6.93454 3.93162e-07 2.69881 -1.77636e-15 2.69881C0.0924801 2.71455 0.16388 2.7239 0.2142 2.72687C2.49251 2.86101 4.4449 2.98575 6.72455 3.09475C10.8287 3.29097 14.3457 3.49582 18.4533 3.59889C26.5404 3.80182 33.4745 4.0727 41.5635 3.96898C60.7051 3.72354 77.1227 3.57205 96.2413 2.60148C101.752 2.32172 109.587 1.45456 119.746 0L133.294 23.4666C122.895 24.3668 114.89 24.9375 109.276 25.1789C90.2078 25.9988 73.8494 26.3402 54.7698 26.843C46.8325 27.0522 40.0244 27.008 32.087 27.2131C28.183 27.314 24.8407 27.5199 20.9404 27.7173C18.8092 27.8251 16.9844 27.9506 14.8548 28.0851C14.812 28.0878 14.7514 28.0972 14.673 28.1132L14.673 28.1132C14.673 28.1132 12.2275 23.8775 7.3365 15.406Z" sodipodi:nodetypes="ccccccccccccccccc"/><path id="shape3" transform="translate(267.137075617202, 44.0828081153096)" fill="#030003" d="M24.4629 12.7072C29.3539 21.1787 31.7994 25.4144 31.7994 25.4144C31.7456 25.4479 31.713 25.4795 31.7018 25.5092C31.5543 25.9005 31.4379 26.2409 31.3348 26.6461C31.059 27.7311 30.799 28.6588 30.6201 29.764C29.9807 33.7144 29.4396 37.1048 28.9982 41.0823C28.6576 44.1506 28.5836 46.8006 28.3874 49.8815C28.1161 54.1414 27.9105 57.7945 27.6625 62.0559C27.4772 65.242 27.341 67.9742 27.1494 71.1599C26.8559 76.0391 26.732 80.2317 26.2766 85.0985C24.447 104.652 22.6885 121.394 20.6218 140.924C20.2735 144.215 19.8032 147.016 19.377 150.298C18.8134 154.639 18.3909 158.368 17.7938 162.704C16.9801 168.613 16.223 173.669 15.3462 179.569C15.18 180.687 15.0237 181.644 14.814 182.755C14.7921 182.871 14.756 182.972 14.6859 183.067C14.6718 183.087 14.6618 183.054 14.6561 182.969L0 157.584C0.269278 155.166 0.499877 153.309 0.691798 152.013C1.61439 145.783 2.323 140.428 3.45821 134.234C3.99309 131.315 4.56368 128.825 5.45982 125.996C7.50323 119.546 9.22738 113.989 11.8483 107.751C13.4666 103.899 15.2142 100.73 17.5355 97.2567C19.2242 94.7298 21.0102 92.7754 23.2381 90.7082C24.9459 89.1236 26.6852 88.0739 28.6975 86.8998C29.8394 86.2335 30.8892 85.6676 32.1979 85.4802C33.1837 85.3391 34.0899 85.5841 34.9957 85.9979C36.7807 86.8135 38.2703 87.6728 39.7692 88.9395C42.0153 90.8376 43.8111 92.6518 45.6163 94.9733C47.1119 96.8967 49.0004 99.8205 51.2816 103.745L65.3593 128.128C67.2204 132.306 68.5852 135.546 69.4536 137.849C69.8489 138.898 70.0558 139.852 70.199 140.963C70.6589 144.53 71.1007 147.597 71.1736 151.193C71.2365 154.295 70.8173 156.944 70.5857 160.039C70.3567 163.098 70.1378 165.719 69.8578 168.775C69.773 169.7 69.6164 170.484 69.5438 171.409C69.2164 175.582 68.9742 179.161 68.7151 183.338C68.6848 183.826 68.671 184.525 68.6738 185.435L54.2841 160.511C54.2856 159.609 54.3028 158.916 54.3358 158.432C54.6176 154.295 54.8763 150.75 55.2305 146.618C55.3086 145.707 55.4761 144.938 55.5706 144.029C55.8825 141.03 56.1452 138.459 56.3917 135.454C56.6445 132.372 57.0618 129.73 56.9972 126.638C56.9216 123.023 56.4614 119.942 55.9925 116.356C55.8469 115.244 55.6371 114.29 55.2444 113.239C54.4045 110.99 53.0835 107.825 51.2816 103.745L65.3593 128.128C63.0674 124.179 61.1686 121.237 59.663 119.303C57.8858 117.02 56.1143 115.236 53.8861 113.391C52.4352 112.189 50.9803 111.395 49.241 110.672C48.3645 110.307 47.4884 110.199 46.5492 110.337C45.231 110.532 44.1386 110.982 42.9571 111.598C40.8972 112.672 39.0949 113.613 37.3422 115.137C35.0648 117.119 33.2704 119.047 31.5466 121.525C29.1853 124.919 27.3741 128.015 25.7412 131.814C23.0768 138.013 21.3601 143.56 19.3122 149.989C18.4099 152.822 17.8293 155.317 17.3217 158.246C16.2289 164.553 15.4304 169.988 14.7442 176.352C14.5787 177.888 14.5493 180.093 14.6561 182.969L0 157.584C0.00523551 157.701 0.0301022 157.76 0.0746001 157.76C0.169485 157.761 0.247651 157.675 0.283176 157.587C0.638344 156.707 0.977653 155.955 1.17758 155.028C2.36462 149.522 3.2671 144.777 4.24083 139.23C4.97535 135.045 5.42994 131.429 6.05728 127.227C6.53754 124.011 7.06152 121.267 7.40539 118.033C9.48631 98.4611 11.184 81.6752 12.9844 62.0756C13.4329 57.1923 13.5552 52.9863 13.8301 48.0902C14.0109 44.8704 14.1577 42.1099 14.2864 38.8876C14.4638 34.4419 14.563 30.6294 14.7047 26.1824C14.8091 22.9051 14.7531 20.0888 14.9894 16.8184C15.2925 12.6226 15.7491 9.04244 16.2447 4.86508C16.386 3.67424 16.6091 2.66803 16.8084 1.48551C16.8889 1.00764 16.9426 0.595 17.044 0.121142C17.0512 0.0877126 17.0786 0.0473318 17.1264 1.24345e-14L17.1264 1.24345e-14C17.1264 -2.26992e-07 19.5719 4.23573 24.4629 12.7072Z" sodipodi:nodetypes="ccccccccccccccccccccccccccccccccccccccccccccccccccccccccccccccccccccccccccccccc"/><path id="shape4" transform="translate(351.270988268572, 144.915481394761)" fill="#030003" d="M38.429 15.1945C43.32 23.666 45.7655 27.9017 45.7655 27.9017C45.7675 27.8023 45.7621 27.727 45.7493 27.6757C45.7291 27.5947 45.7053 27.5232 45.6547 27.457C45.4836 27.2334 45.3383 27.0342 45.1213 26.8547C44.6513 26.466 44.2523 26.1071 43.7027 25.8425C42.995 25.5019 42.3481 25.25 41.5697 25.1451C40.005 24.9343 38.6272 24.7323 37.0632 24.948C35.3308 25.187 33.8472 25.6294 32.2899 26.4251C30.2327 27.4762 28.5571 28.6073 26.8516 30.1656C24.1066 32.6737 21.7895 34.9345 19.6492 37.975C17.9255 40.4239 16.8033 42.8163 15.9304 45.681C14.7907 49.4216 14.1378 52.7709 13.951 56.6768C13.8071 59.6865 14.3449 62.2802 14.9961 65.2222C15.204 66.1614 15.7639 67.4162 16.6758 68.9868L2.32797 44.1355C3.12969 45.1297 3.79678 45.84 4.32926 46.2662C5.04905 46.8424 5.76342 47.2247 6.61832 47.57C7.15115 47.7852 7.6627 47.8261 8.23706 47.8446C9.38862 47.8819 10.3793 47.831 11.5269 47.7288C12.071 47.6803 12.5494 47.6202 13.0557 47.4153C14.2371 46.9372 15.2723 46.5242 16.315 45.7913C17.3103 45.0916 18.0701 44.3365 18.8097 43.3704C19.952 41.8782 20.7865 40.4834 21.6543 38.8165C22.3531 37.474 22.7989 36.2437 23.2686 34.8051C24.2126 31.9138 25.0909 29.4412 25.6889 26.4591C26.8439 20.6986 27.3176 15.6701 28.268 9.87233C28.519 8.34074 28.772 7.03307 29.1211 5.52082C29.1537 5.37945 29.2107 5.20959 29.352 5.17654C29.4912 5.14399 29.6381 5.25747 29.7034 5.38462C30.583 7.09768 31.7747 9.57719 33.2784 12.8231L47.3433 37.1842C50.3185 44.1525 52.7034 49.4675 54.4982 53.1292C56.6496 57.5187 59.8994 63.6999 64.2475 71.6728L50.2973 47.5103C46.0503 39.6951 42.8724 33.6383 40.7634 29.3399C38.8997 25.5413 36.4047 20.0357 33.2784 12.8231L47.3433 37.1842C46.0628 34.3242 45.0425 32.1414 44.2822 30.6358C44.2191 30.5109 44.0756 30.4328 43.9357 30.4363C43.805 30.4396 43.6756 30.5292 43.6307 30.6521C43.152 31.9618 42.7127 33.0895 42.4646 34.4616C41.415 40.2664 41.0616 45.3347 39.9291 51.1239C39.3407 54.1314 38.4962 56.6351 37.5562 59.5518C37.0938 60.9865 36.6146 62.1971 35.9278 63.539C35.0634 65.2279 34.2487 66.6487 33.137 68.1861C32.4156 69.1837 31.6994 69.9956 30.7198 70.7412C29.7071 71.5121 28.6854 71.9582 27.5174 72.4638C27.0173 72.6803 26.5372 72.7401 25.9942 72.7868C24.8416 72.8857 23.846 72.9269 22.6902 72.8782C22.1097 72.8538 21.5938 72.802 21.0572 72.5789C20.1941 72.22 19.47 71.8313 18.7471 71.2386C18.195 70.786 17.5046 70.0354 16.6758 68.9868L2.32797 44.1355C1.48737 42.6821 0.981116 41.5202 0.809209 40.6498C0.260734 37.8729 -0.144793 35.4222 0.0492305 32.5982C0.314358 28.7394 0.976528 25.4391 2.10841 21.7405C2.99213 18.8528 4.05902 16.4175 5.76382 13.9248C7.87228 10.8418 10.2062 8.57934 12.8877 5.9794C14.556 4.3618 16.1394 3.09892 18.1431 1.92201C19.6332 1.04676 21.0677 0.515097 22.7629 0.1791C24.2633 -0.118296 25.6084 0.0172191 27.1331 0.140149C27.8748 0.199949 28.5027 0.399696 29.1849 0.696882C29.7185 0.929349 30.0986 1.27738 30.5595 1.63285C30.7449 1.77584 30.8768 1.93223 31.0234 2.11485C31.0715 2.17485 31.0947 2.24175 31.1087 2.31739C31.116 2.35655 31.1106 2.4132 31.0925 2.48733L31.0925 2.48733C31.0925 2.48733 33.538 6.72306 38.429 15.1945Z" sodipodi:nodetypes="ccccccccccccccccccccccccccccccccccccccccccccccccccccccccccccccccccccc"/><path id="shape5" transform="translate(437.491417761822, 59.3828081153096)" fill="#030003" d="M13.4086 12.7072C18.2996 21.1787 20.7451 25.4144 20.7451 25.4144C20.741 25.4884 20.7356 25.5451 20.7289 25.5843C20.4121 27.4264 20.1266 29.0029 19.8113 30.8453C18.985 35.6732 18.0259 39.776 17.4674 44.6421C16.6769 51.5299 16.3486 57.4712 15.9609 64.3934C15.4931 72.7445 15.2609 79.9118 15.0234 88.2726C14.6725 100.626 14.4551 111.217 14.2798 123.573C14.1795 130.641 14.265 136.7 14.2358 143.769C14.2076 150.602 14.1204 156.459 14.1156 163.293C14.1112 169.518 14.1827 174.854 14.2095 181.079C14.2153 182.43 14.2066 183.589 14.2089 184.941C14.2136 187.706 14.2227 191.656 14.2362 196.791L0 172.134C0.0301335 167.071 0.0534788 163.177 0.0700358 160.451C0.0781589 159.114 0.0741876 157.968 0.0941676 156.63C0.183715 150.637 0.273672 145.5 0.382968 139.507C0.504821 132.826 0.567001 127.098 0.754593 120.418C0.941982 113.746 1.21293 108.03 1.4543 101.359C1.89055 89.3026 2.26413 78.9685 2.69066 66.9117C2.98856 58.4911 3.23097 51.273 3.52411 42.8523C3.78098 35.4734 3.8391 29.1411 4.26214 21.7699C4.57414 16.3335 5.16358 11.6973 5.6235 6.27133C5.80273 4.15683 5.93688 2.34274 6.08828 0.226059C6.09206 0.173312 6.08666 0.0979585 6.07208 3.55271e-15L6.07208 3.55271e-15C6.07208 -2.26992e-07 8.51758 4.23573 13.4086 12.7072Z" sodipodi:nodetypes="ccccccccccccccccccccccccccc"/><path id="shape6" transform="translate(384.253501376069, 115.092808455798)" fill="#030003" d="M7.3365 12.7072C2.4455 4.23573 3.93162e-07 -2.26992e-07 -8.88178e-15 -3.55271e-15C0.093328 0.00904254 0.164728 0.0183956 0.2142 0.0280592C0.937913 0.169426 1.55737 0.295086 2.27931 0.44523C3.93316 0.789182 5.34033 1.13647 7.00212 1.43975C11.3983 2.24207 15.1477 3.07719 19.5854 3.60365C24.8699 4.23057 29.4343 4.44229 34.7481 4.73134C42.8412 5.17158 49.7876 5.34964 57.8857 5.68706C63.938 5.93925 69.1261 6.14582 75.1777 6.41595C77.9331 6.53895 80.2917 6.71227 83.0481 6.81028C91.867 7.12385 99.4293 7.29403 108.249 7.59186C110.456 7.6664 112.345 7.79866 114.552 7.87416C117.063 7.96006 120.651 8.06057 125.316 8.1757L139.302 32.4001C134.545 32.1039 130.886 31.8796 128.324 31.7272C126.103 31.5951 124.199 31.4726 121.977 31.3695C113.09 30.9576 105.469 30.6958 96.5844 30.2558C93.7978 30.1178 91.4168 29.8745 88.6313 29.7182C82.5495 29.377 77.3328 29.1543 71.2499 28.8346C63.0906 28.4057 56.0971 28.0346 47.9393 27.5791C42.6805 27.2855 38.1759 26.9814 32.9167 26.6942C28.8353 26.4714 25.3299 26.4059 21.2523 26.1218C19.6808 26.0123 18.3503 25.7503 16.7853 25.5704C16.111 25.4928 15.5317 25.4363 14.8548 25.3863C14.812 25.3832 14.7514 25.3925 14.673 25.4144L14.673 25.4144C14.673 25.4144 12.2275 21.1787 7.3365 12.7072Z" sodipodi:nodetypes="ccccccccccccccccccccccccccc"/><path id="shape7" transform="translate(483.521283228518, 152.633638755459)" fill="#030003" d="M12.3787 45.4564C7.48772 36.9849 5.04222 32.7492 5.04222 32.7492C5.04023 32.8486 5.04563 32.9239 5.05842 32.9752C5.07859 33.0561 5.09367 33.1354 5.15307 33.1939C5.56833 33.6031 5.91533 33.9745 6.40049 34.2977C6.89029 34.6241 7.35839 34.8356 7.91296 35.0328C11.4981 36.3074 14.4862 37.7517 18.2171 38.4989C24.0193 39.6609 29.1068 40.0474 35.0098 40.4593C38.5454 40.7061 41.5954 40.5404 45.1359 40.3776C46.5122 40.3144 47.6857 40.1076 49.0321 39.8147C51.9342 39.1834 54.4756 38.773 57.2602 37.7401C59.2732 36.9934 60.9257 36.0793 62.6284 34.7713C64.2313 33.5401 65.4436 32.2348 66.5922 30.5717C67.7164 28.9439 68.4058 27.3515 69.0457 25.4796C69.4458 24.3091 69.5322 23.2156 69.5296 21.9787C69.527 20.743 69.3566 19.6757 69.0311 18.4837C68.6994 17.2696 68.3258 16.2287 67.6662 15.1567C66.9789 14.0396 65.8374 12.5538 64.2416 10.6993L78.3631 35.1586C75.6959 32.8633 73.5368 31.2659 71.8858 30.3665C68.8402 28.7074 65.9981 27.7271 62.7079 26.6301C59.9559 25.7125 57.5406 25.0117 54.6655 24.625C51.0606 24.1401 47.9201 24.0641 44.2838 24.152C42.5119 24.1948 40.9969 24.5167 39.2906 24.9964C36.8308 25.6879 34.6928 26.3031 32.4274 27.485C30.1486 28.674 28.3695 30.0345 26.4211 31.711C24.5069 33.358 22.9895 34.9375 21.4446 36.935C19.9728 38.8379 18.833 40.5977 17.8499 42.7932C16.5886 45.61 15.7271 48.1465 15.0737 51.1629C14.3864 54.3353 13.9325 57.1351 14.0401 60.3793C14.1441 63.5132 14.7252 66.1989 15.6719 69.1882C16.349 71.3261 17.6606 74.2491 19.6068 77.957L5.64874 53.7809C6.84883 55.6078 7.86036 56.9362 8.68333 57.7661C11.3239 60.4289 13.5244 62.8696 16.6762 64.9015C21.6959 68.1376 26.265 70.5933 31.8524 72.7028C39.3934 75.5498 46.1384 77.2437 54.0064 78.9952C59.2136 80.1544 63.7921 80.6609 69.1161 80.9984C74.2951 81.3267 78.7564 81.0761 83.9426 80.8929C84.8888 80.8595 86.2283 80.6728 87.9611 80.3328L102.076 104.781C100.267 104.982 98.874 105.075 97.8967 105.062C92.573 104.99 87.9998 104.966 82.6946 104.517C77.3743 104.067 72.7972 103.603 67.574 102.495C59.8203 100.851 53.1328 99.3952 45.6899 96.67C40.1046 94.625 35.5655 92.1463 30.5553 88.9408C27.4311 86.9418 25.2427 84.5393 22.6242 81.9125C21.8047 81.0903 20.7989 79.7718 19.6068 77.957L5.64874 53.7809C3.68317 50.0413 2.35718 47.0935 1.67077 44.9375C0.714962 41.9354 0.123167 39.2379 0.0161318 36.0891C-0.0939985 32.8492 0.371377 30.054 1.05715 26.8856C1.71103 23.8645 2.55715 21.3183 3.82344 18.4986C4.80616 16.3104 5.95848 14.5636 7.43855 12.6759C8.99311 10.6931 10.5265 9.13662 12.4445 7.50281C14.4009 5.8363 16.1745 4.46831 18.458 3.28919C20.7309 2.11552 22.8784 1.52026 25.3448 0.841605C27.0565 0.37063 28.5746 0.0489463 30.3496 0.0171485C34.0028 -0.0482961 37.1558 0.0609575 40.7746 0.565191C43.6539 0.966384 46.0591 1.71123 48.8296 2.59208C52.03 3.60961 54.8343 4.41687 57.8064 5.98031C59.4543 6.84717 61.5994 8.42017 64.2416 10.6993L78.3631 35.1586C79.9689 37.0304 81.1181 38.5294 81.8107 39.6557C82.4749 40.7357 82.8521 41.7835 83.1889 43.0059C83.5204 44.2087 83.7057 45.2853 83.706 46.5329C83.7063 47.7527 83.5968 48.8294 83.1908 49.9796C82.5359 51.8347 81.8376 53.4115 80.709 55.0228C79.551 56.6762 78.3447 57.9856 76.7325 59.2003C75.0171 60.4927 73.3361 61.3502 71.3218 62.0955C68.5429 63.1238 66.0201 63.5788 63.1302 64.2334C61.7912 64.5367 60.6252 64.7817 59.2531 64.8294C55.673 64.9536 52.5904 64.997 49.0186 64.7233C43.1174 64.2711 38.0533 63.7769 32.2231 62.7581C28.7001 62.1424 25.7977 61.0721 22.3657 60.0657C21.8364 59.9105 21.3925 59.724 20.918 59.4428C20.4809 59.1838 20.1601 58.878 19.7844 58.536C19.7275 58.4843 19.7131 58.4091 19.699 58.3335C19.6917 58.2943 19.6971 58.2377 19.7152 58.1636L19.7152 58.1636C19.7152 58.1636 17.2697 53.9278 12.3787 45.4564Z" sodipodi:nodetypes="ccccccccccccccccccccccccccccccccccccccccccccccccccccccccccccccccccccccccccccccccc"/><path id="shape8" transform="translate(638.863501965813, 69.2828081153097)" fill="#030003" d="M7.3365 12.7072C12.2275 21.1787 14.673 25.4144 14.673 25.4144C14.6616 25.4878 14.6562 25.5445 14.6568 25.5843C14.6832 27.3809 14.7219 28.9206 14.7508 30.7171C14.7863 32.9225 14.6976 34.8174 14.8409 37.0184C15.3176 44.336 15.8701 50.5986 16.5217 57.9027C16.7976 60.9955 17.1236 63.6381 17.4907 66.7214C18.0537 71.4507 18.592 75.4975 19.1791 80.2239C19.58 83.4514 19.9451 86.2153 20.3137 89.4466C20.6906 92.7512 21.0504 95.5812 21.3091 98.8971C22.7308 117.121 24.0334 132.737 25.1144 150.984C25.6079 159.312 25.6559 166.469 25.8067 174.81C25.8548 177.471 25.8337 179.757 25.6824 182.414C25.3609 188.062 24.9185 192.893 24.4562 198.531C24.204 201.607 23.8123 205.999 23.2809 211.706L9.11972 187.178C9.78871 181.654 10.2599 177.399 10.5332 174.416C11.049 168.785 11.4428 163.953 11.7645 158.308C11.9161 155.648 11.9085 153.361 11.885 150.697C11.8127 142.538 11.9117 135.536 11.4907 127.387C10.5587 109.343 9.3405 93.9002 8.02044 75.8804C7.77746 72.5636 7.40658 69.7344 7.02533 66.4306C6.65018 63.1796 6.26776 60.4004 5.8594 57.1535C5.264 52.4194 4.73996 48.3633 4.15745 43.6276C3.77064 40.4829 3.42334 37.789 3.08995 34.6382C2.28454 27.0265 1.58884 20.5021 0.903841 12.8786C0.690383 10.503 0.690296 8.45379 0.523374 6.07446C0.379586 4.02487 0.192572 2.2731 0.0162 0.226059C0.0116605 0.173372 0.00626047 0.0980189 -3.01981e-14 3.55271e-15L-3.01981e-14 3.55271e-15C3.93162e-07 -2.26992e-07 2.4455 4.23573 7.3365 12.7072Z" sodipodi:nodetypes="ccccccccccccccccccccccccccccccc"/><path id="shape9" transform="translate(598.45350137607, 155.831314628482)" fill="#030003" d="M7.3365 15.1687C2.4455 6.69722 3.93162e-07 2.46149 0 2.46149C0.092427 2.48205 0.163827 2.4914 0.2142 2.48955C1.22266 2.45249 2.08601 2.3966 3.09396 2.34779C4.578 2.27594 5.84864 2.17122 7.33418 2.14481C11.7762 2.06584 15.5856 2.14409 20.0272 2.04673C28.4253 1.86264 35.6212 1.60427 44.0172 1.3407C51.2132 1.1148 57.3804 0.897038 64.5756 0.648249C68.7259 0.504744 72.2813 0.316497 76.433 0.219856C81.9535 0.0913522 86.687 0.0631227 92.2087 0.00501841C93.5946 -0.00956477 94.7826 0.0122856 96.1685 0.012182C98.8386 0.0119825 101.127 0.00271393 103.797 0.00415261C104.56 0.00456342 105.649 0.00919694 107.065 0.0180532L121.442 24.9207C120.034 24.9298 118.95 24.9347 118.191 24.9356C115.519 24.9385 113.229 24.9301 110.556 24.9328C109.175 24.9342 107.991 24.953 106.609 24.9473C101.025 24.9242 96.2378 24.9086 90.6536 24.8507C86.3771 24.8064 82.7126 24.6871 78.436 24.6551C71.0901 24.6002 64.7928 24.5109 57.4473 24.6024C49.03 24.7072 41.8028 24.6507 33.4038 25.2158C29.2653 25.4942 25.7985 26.4449 21.689 27.0081C20.2481 27.2055 18.9946 27.211 17.5511 27.3884C16.601 27.5051 15.7987 27.6879 14.8548 27.8478C14.8125 27.855 14.7519 27.8643 14.673 27.8759L14.673 27.8759C14.673 27.8759 12.2275 23.6401 7.3365 15.1687Z" sodipodi:nodetypes="ccccccccccccccccccccccccccc"/><path id="shape10" transform="translate(721.629169579782, 66.5828081153097)" fill="#030003" d="M8.27083 12.7072C13.1618 21.1787 15.6073 25.4144 15.6073 25.4144C15.5362 25.5092 15.4956 25.5869 15.4856 25.6474C15.0252 28.4263 14.5204 30.7963 14.2513 33.6003C13.83 37.9883 13.6389 41.7672 13.5151 46.1737C13.2017 57.3393 13.1071 66.9144 13.0024 78.0839C12.8855 90.5592 12.844 101.253 12.8821 113.729C12.913 123.849 13.0225 132.524 13.1997 142.643C13.3835 153.14 13.6693 162.135 13.9137 172.631C13.9695 175.029 13.9371 177.087 14.0576 179.482C14.3064 184.429 14.5348 188.67 14.9687 193.605C15.0038 194.003 15.1623 194.552 15.4443 195.251L0.881246 170.027C0.946692 170.031 0.98172 170.02 0.986331 169.995C1.25966 168.499 1.57534 167.222 1.6711 165.704C1.95623 161.186 1.73705 157.29 2.07295 152.774C2.64917 145.029 2.93821 138.343 4.27574 130.692C5.55757 123.36 7.28594 117.181 9.53569 110.085C11.0596 105.279 12.7965 101.289 15.0316 96.7692C16.1382 94.5315 17.4442 92.7895 19.0388 90.8687C19.9657 89.7521 20.9696 88.9636 22.1781 88.1602C22.853 87.7116 23.5399 87.4419 24.344 87.342C25.2188 87.2332 26.0062 87.3287 26.8514 87.5792C27.8742 87.8822 28.771 88.2262 29.5989 88.899C32.8237 91.52 35.4114 93.9851 38.3494 96.9241C39.5423 98.1174 40.5031 99.233 41.3741 100.678C42.644 102.785 44.2682 105.902 46.2469 110.028L60.1503 134.11C62.0531 139.249 63.2576 143.263 63.7638 146.153C64.9993 153.208 65.4549 159.359 65.8253 166.511C66.2093 173.923 66.0332 180.295 65.9167 187.716C65.8946 189.124 65.5813 190.309 65.4297 191.708C65.292 192.979 65.1133 194.796 64.8935 197.159L50.6931 172.563C50.9711 170.283 51.1861 168.529 51.3382 167.301C51.5105 165.911 51.8076 164.73 51.8372 163.33C51.9925 155.983 52.2281 149.673 51.8661 142.333C51.5131 135.175 51.0253 129.023 49.7972 121.963C49.2993 119.1 48.1158 115.122 46.2469 110.028L60.1503 134.11C58.2053 130.042 56.6071 126.971 55.3557 124.895C54.4807 123.444 53.5269 122.313 52.3205 121.123C49.4711 118.312 46.9465 115.97 43.8 113.496C43.0032 112.87 42.1288 112.585 41.146 112.338C40.3159 112.129 39.5523 112.102 38.7037 112.214C37.8943 112.32 37.1908 112.53 36.4907 112.95C35.2561 113.691 34.2154 114.416 33.2506 115.484C31.6059 117.306 30.2468 118.967 29.1002 121.137C26.7834 125.522 24.9692 129.406 23.4084 134.114C21.0842 141.124 19.3165 147.247 18.0326 154.52C16.6765 162.203 16.3796 168.92 15.89 176.706C15.5945 181.406 15.8546 185.453 15.7914 190.162C15.7669 191.987 15.7635 193.554 15.6393 195.375C15.6356 195.428 15.5706 195.387 15.4443 195.251L0.881246 170.027C0.781061 169.549 0.725935 169.179 0.715868 168.918C0.537944 164.295 0.419643 160.331 0.330031 155.705C0.285299 153.396 0.353226 151.417 0.332064 149.107C0.238002 138.843 0.0168473 130.046 0.000824283 119.782C-0.0144437 110.001 0.186756 101.618 0.242665 91.837C0.313975 79.3621 0.333147 68.6691 0.364307 56.194C0.392906 44.7444 0.42346 34.9305 0.413405 23.4809C0.409101 18.5792 0.22528 14.377 0.32328 9.4763C0.387307 6.27444 0.670016 3.53887 0.876093 0.34301C0.881317 0.261997 0.90073 0.147661 0.934332 9.12336e-15L0.934332 9.12336e-15C0.934333 -2.26992e-07 3.37983 4.23573 8.27083 12.7072Z" sodipodi:nodetypes="ccccccccccccccccccccccccccccccccccccccccccccccccccccccccccccccccccc"/><path id="shape11" transform="translate(798.163501965814, 161.08280811531)" fill="#030003" d="M7.3365 12.7072C12.2275 21.1787 14.673 25.4144 14.673 25.4144C14.6555 25.5165 14.6456 25.5954 14.6433 25.6509C14.5254 28.5225 14.4022 30.9832 14.3264 33.8561C14.1988 38.6901 14.0877 42.8342 14.0623 47.6699C14.0056 58.4925 14.0453 67.7694 14.0919 78.5921C14.1117 83.1928 14.1747 89.7649 14.2806 98.3085L0.39235 74.2532C0.498703 65.993 0.561614 59.6388 0.581083 55.1907C0.628296 44.4039 0.666213 35.1577 0.610683 24.3709C0.584142 19.2152 0.471214 14.7967 0.346604 9.64238C0.267863 6.38542 0.146733 3.59526 0.0297 0.339442C0.0268439 0.259988 0.0169439 0.14684 -3.01981e-14 3.55271e-15L-3.01981e-14 3.55271e-15C3.93162e-07 -2.26992e-07 2.4455 4.23573 7.3365 12.7072Z" sodipodi:nodetypes="ccccccccccccccc"/><path id="shape12" transform="translate(824.448146813639, 159.19280811531)" fill="#030003" d="M34.9619 12.7072C39.8529 21.1787 42.2984 25.4144 42.2984 25.4144C42.206 25.3958 42.1346 25.3865 42.0842 25.3863C39.908 25.3799 38.0174 25.0647 35.8665 25.3953C32.699 25.8821 30.0341 26.6547 27.0059 27.7038C25.7258 28.1472 24.7551 28.848 23.6475 29.6282C22.1474 30.6849 20.8249 31.5877 19.5794 32.9352C18.3934 34.2183 17.559 35.5035 16.7739 37.0645C16.1774 38.2507 15.7154 39.3688 15.6765 40.696C15.6104 42.9494 15.9767 44.8893 16.4798 47.0867C16.8418 48.6678 17.3626 49.9884 18.1311 51.4168C18.8685 52.7873 20.0929 54.6429 21.8044 56.9836L7.77179 32.6784C9.71449 34.8344 11.3141 36.3665 12.5707 37.2748C15.364 39.2939 17.8663 40.9637 21.0524 42.2783C25.8743 44.2678 30.308 45.1379 35.2994 46.6527C36.7928 47.1059 38.1432 47.292 39.5801 47.9012C40.5308 48.3042 41.2496 48.8624 42.05 49.5147C42.93 50.2319 43.695 50.8723 44.3572 51.7944C45.0223 52.7206 45.8192 54.1415 46.7478 56.057L60.9825 80.7122C61.7404 82.613 62.2226 84.1011 62.4291 85.1764C62.6501 86.3276 62.7217 87.3775 62.4827 88.525C62.0946 90.3885 61.5715 91.9771 60.6642 93.6505C59.6277 95.5622 58.5467 97.1431 56.9881 98.6595C54.5829 100.999 52.2372 102.718 49.4397 104.571C46.4851 106.528 43.814 108.016 40.6024 109.515C38.6878 110.409 36.9332 110.971 34.8596 111.376C33.2947 111.683 31.8921 111.697 30.3063 111.53C28.1502 111.303 26.351 110.769 24.2436 110.26C23.3174 110.036 22.5005 109.865 21.6482 109.439C20.0472 108.638 18.7652 107.778 17.2799 106.779C16.562 106.296 15.5815 105.544 14.3382 104.522L0 79.6871C1.25949 80.7485 2.25551 81.5277 2.98806 82.0246C4.46604 83.0272 5.75903 83.8609 7.34974 84.6729C8.22941 85.1219 9.05338 85.3701 10.0115 85.6096C12.1068 86.1332 13.9079 86.6287 16.0564 86.8486C17.6426 87.011 19.0409 86.9807 20.6094 86.6943C22.6986 86.3127 24.4689 85.7876 26.423 84.9555C29.6884 83.565 32.4801 82.2861 35.4662 80.3679C38.2953 78.5506 40.5796 76.728 42.9475 74.3406C44.4947 72.7807 45.5412 71.1509 46.546 69.197C47.4316 67.4748 47.9222 65.8476 48.2925 63.9468C48.5182 62.7882 48.4523 61.7334 48.2255 60.575C48.0124 59.4865 47.5198 57.9805 46.7478 56.057L60.9825 80.7122C60.044 78.7767 59.2385 77.341 58.5662 76.4052C57.9177 75.5024 57.1598 74.8834 56.2941 74.1862C55.4968 73.544 54.7763 73.0074 53.8383 72.5972C52.3692 71.9548 50.9975 71.7038 49.474 71.2038C44.3988 69.5383 39.9073 68.4846 34.9851 66.4104C31.859 65.0931 29.352 63.535 26.5927 61.5616C25.3354 60.6624 23.7393 59.1364 21.8044 56.9836L7.77179 32.6784C6.0673 30.3498 4.84827 28.5036 4.11472 27.1397C3.34994 25.7177 2.84199 24.4002 2.47407 22.8281C1.94536 20.5689 1.54393 18.581 1.56883 16.2609C1.58351 14.8936 1.98929 13.7193 2.58504 12.4885C3.34607 10.9163 4.19204 9.63135 5.39216 8.36219C6.64877 7.0333 8.00613 6.18445 9.51861 5.15612C10.639 4.39436 11.6274 3.74187 12.8942 3.26155C15.8577 2.13792 18.4542 1.28267 21.5481 0.595077C23.5716 0.145352 25.3805 0.230072 27.4436 0.0280592C27.4863 0.0238764 27.5469 0.0145233 27.6254 0L27.6254 0C27.6254 -2.26992e-07 30.0709 4.23573 34.9619 12.7072Z" sodipodi:nodetypes="ccccccccccccccccccccccccccccccccccccccccccccccccccccccccccccccccccc"/><path id="shape13" transform="translate(798.731173854102, 115.18280811531)" fill="#030003" d="M10.3688 12.7072C15.2598 21.1787 17.7053 25.4144 17.7053 25.4144C17.6619 25.4544 17.6293 25.486 17.6077 25.5092C17.4936 25.6322 17.401 25.7424 17.2867 25.8652C17.119 26.0453 16.9461 26.175 16.802 26.3745C16.5197 26.7653 16.2812 27.1085 16.074 27.5438C15.6833 28.3649 15.3275 29.0719 15.0994 29.9522C14.7614 31.2564 14.5582 32.405 14.4661 33.7492C14.4317 34.251 14.5071 34.9656 14.6924 35.8931L0.192127 10.7778C0.0359059 9.8821 -0.025046 9.19256 0.00927111 8.70922C0.105852 7.34891 0.295184 6.18614 0.612305 4.85979C0.82966 3.95071 1.16183 3.21101 1.52934 2.35159C1.72453 1.89513 1.95037 1.52989 2.21567 1.11028C2.35087 0.896435 2.51894 0.750984 2.66974 0.547836C2.77623 0.40438 2.85131 0.270126 2.94992 0.121142C2.96878 0.0926336 2.99626 0.0522528 3.03233 9.12336e-15L3.03233 9.12336e-15C3.03233 -2.26992e-07 5.47783 4.23573 10.3688 12.7072Z" sodipodi:nodetypes="ccccccccccccccccccc"/>
</svg>
